# AST/ASF file generated using VICON BodyLanguage
# -----------------------------------------------
:version 1.10
:name VICON
:units
  mass 1.0
  length 0.45
  angle deg
:documentation
   .ast/.asf automatically generated from VICON data using
   VICON BodyBuilder and BodyLanguage model FoxedUp or BRILLIANT.MOD
:root
   order TX TY TZ RX RY RZ
   axis XYZ
   position 0 0 0  
   orientation 0 0 0 
:bonedata
  begin
     id 1 
     name lhipjoint
     direction 0.57768 -0.667037 0.470475 
     length 2.36008 
     axis 0 0 0  XYZ
  end
  begin
     id 2 
     name lfemur
     direction 0.34202 -0.939693 0  
     length 6.97235  
     axis 0 0 20  XYZ
    dof rx ry rz
    limits (-160.0 20.0)
           (-70.0 70.0)
           (-60.0 70.0)
  end
  begin
     id 3 
     name ltibia
     direction 0.34202 -0.939693 0   
     length 6.93428   
     axis 0 0 20   XYZ
    dof rx
    limits (-10.0 170.0)
  end
  begin
     id 4 
     name lfoot
     direction 0.133018 -0.365463 0.921272   
     length 2.18603   
     axis -90 7.62852e-016 20   XYZ
    dof rx rz
    limits (-45.0 90.0)
           (-70.0 20.0)
  end
  begin
     id 5 
     name ltoes
     direction 1.53519e-011 -4.22055e-011 1   
     length 1.07924   
     axis -90 7.62852e-016 20   XYZ
    dof rx
    limits (-90.0 20.0)
  end
  begin
     id 6 
     name rhipjoint
     direction -0.577712 -0.667019 0.470462   
     length 2.36015  
     axis 0 0 0  XYZ 
  end
  begin
     id 7 
     name rfemur
     direction -0.34202 -0.939693 0   
     length 6.71195   
     axis 0 0 -20   XYZ
    dof rx ry rz
    limits (-160.0 20.0)
           (-70.0 70.0)
           (-70.0 60.0)
  end
  begin
     id 8 
     name rtibia
     direction -0.34202 -0.939693 0   
     length 7.04592   
     axis 0 0 -20   XYZ
    dof rx
    limits (-10.0 170.0)
 end
 begin
     id 9 
     name rfoot
     direction -0.113796 -0.312651 0.943027   
     length 2.03846  
     axis -90 -7.62852e-016 -20   XYZ
    dof rx rz
    limits (-45.0 90.0)
           (-20.0 70.0)
  end
  begin
     id 10 
     name rtoes
     direction -1.53586e-011 -4.218e-011 1   
     length 1.01562   
     axis -90 -7.62852e-016 -20   XYZ
    dof rx
    limits (-90.0 20.0)
  end
  begin
     id 11 
     name lowerback
     direction -0.0417299 0.991937 -0.119667   
     length 2.05257   
     axis 0 0 0   XYZ
    dof rx ry rz
    limits (-20.0 45.0)
           (-30.0 30.0)
           (-30.0 30.0)
  end
  begin
     id 12 
     name upperback
     direction -0.00017666 0.999999 0.00105178   
     length 2.05693   
     axis 0 0 0   XYZ
    dof rx ry rz
    limits (-20.0 45.0)
           (-30.0 30.0)
           (-30.0 30.0)
  end
  begin
     id 13 
     name thorax
     direction 0.0185169 0.998203 0.0569866   
     length 2.0932   
     axis 0 0 0   XYZ
    dof rx ry rz
    limits (-20.0 45.0)
           (-30.0 30.0)
           (-30.0 30.0)
  end
  begin
     id 14 
     name lowerneck
     direction -0.0212406 0.982645 0.184277   
     length 1.72509   
     axis 0 0 0   XYZ
    dof rx ry rz
    limits (-20.0 45.0)
           (-30.0 30.0)
           (-30.0 30.0)
  end
  begin
     id 15 
     name upperneck
     direction 0.00528579 0.965323 -0.261004   
     length 1.76294   
     axis 0 0 0   XYZ
    dof rx ry rz
    limits (-20.0 45.0)
           (-30.0 30.0)
           (-30.0 30.0)
  end
  begin
     id 16
     name head
     direction 0.00695421 0.994078 -0.108445  
     length 1.78678  
     axis 0 0 0   XYZ
    dof rx ry rz
    limits (-20.0 45.0)
           (-30.0 30.0)
           (-30.0 30.0)
  end
  begin
     id 17 
     name lclavicle
     direction 0.97277 0.211305 -0.095232  
     length 3.84823  
     axis 0 0 0   XYZ
    dof ry rz
    limits (-20.0 10.0)
           (0.0 20.0)
  end
  begin
     id 18 
     name lhumerus
     direction 1 -4.48957e-011 -1.98313e-027   
     length 4.97185   
     axis 180 -30 -90   XYZ
    dof rx ry rz
    limits (-60.0 90.0)
           (-90.0 90.0)
           (-90.0 90.0)
  end
  begin
     id 19
     name lradius
     direction 1 -4.4898e-011 7.31063e-027   
     length 3.35811   
     axis 180 -30 -90   XYZ
    dof rx
    limits (-10.0 170.0)
  end
  begin
     id 20
     name lwrist
     direction 1 -4.48938e-011 9.95048e-027   
     length 1.67905   
     axis -8.75986e-015 90 90   XYZ
    dof ry
    limits (-180.0 0.0)
 end
  begin
     id 21 
     name lhand
     direction 1 -4.4901e-011 1.9901e-026   
     length 0.622776   
     axis -1.26985e-014 90 90   XYZ
    dof rx rz
    limits (-90.0 90.0)
           (-45.0 45.0)
  end
  begin
     id 22 
     name lfingers
     direction 1 -4.48961e-011 3.98019e-026   
     length 0.502098   
     axis -2.5397e-014 90 90   XYZ
    dof rx
    limits (0.0 90.0)
  end
  begin
     id 23
     name lthumb
     direction 0.707107 -6.34933e-011 0.707107   
     length 0.720915   
     axis -90 45 2.85299e-015   XYZ
    dof rx rz
    limits (-45.0 45.0)
           (-45.0 45.0)
  end
  begin
     id 24 
     name rclavicle
     direction -0.990867 0.133739 -0.0172226   
     length 3.78845  
     axis 0 0 0   XYZ 
    dof ry rz
    limits (-10.0 20.0)
           (-20.0 0.0)
  end
  begin
     id 25 
     name rhumerus
     direction -1 -4.48972e-011 -1.99267e-027  
     length 4.96493   
     axis 180 30 90   XYZ
    dof rx ry rz
    limits (-90.0 60.0)
           (-90.0 90.0)
           (-90.0 90.0)
  end
  begin
     id 26 
     name rradius
     direction -1 -4.48969e-011 8.96093e-027   
     length 3.34929   
     axis 180 30 90   XYZ
    dof rx
    limits (-10.0 170.0)
  end
  begin
     id 27 
     name rwrist
     direction -1 -4.48953e-011 9.95048e-027   
     length 1.67464   
     axis -8.75986e-015 -90 -90   XYZ
    dof ry
    limits (-180.0 0.0)
  end
  begin
     id 28
     name rhand
     direction -1 -4.49001e-011 1.9901e-026   
     length 0.638041   
     axis -1.26985e-014 -90 -90   XYZ
    dof rx rz
    limits (-90.0 90.0)
           (-45.0 45.0)
  end
  begin
     id 29
     name rfingers
     direction -1 -4.48967e-011 3.98019e-026   
     length 0.514405   
     axis -2.5397e-014 -90 -90   XYZ
    dof rx
    limits (0.0 90.0)
  end
  begin
     id 30
     name rthumb
     direction -0.707107 -6.34904e-011 0.707107   
     length 0.738586   
     axis -90 -45 -2.85299e-015   XYZ
    dof rx rz
    limits (-45.0 45.0)
           (-45.0 45.0)
  end
:hierarchy
  begin
    root lhipjoint rhipjoint lowerback
    lhipjoint lfemur
    lfemur ltibia
    ltibia lfoot
    lfoot ltoes
    rhipjoint rfemur
    rfemur rtibia
    rtibia rfoot
    rfoot rtoes
    lowerback upperback
    upperback thorax
    thorax lowerneck lclavicle rclavicle
    lowerneck upperneck
    upperneck head
    lclavicle lhumerus
    lhumerus lradius
    lradius lwrist
    lwrist lhand lthumb
    lhand lfingers
    rclavicle rhumerus
    rhumerus rradius
    rradius rwrist
    rwrist rhand rthumb
    rhand rfingers
  end

#!OML:ASF E:\Mandelcareful walks\Project 1\Capture day 1\Session 1\Subject1.ASF
:FULLY-SPECIFIED
:DEGREES
235
root 5.4361 17.0435 -0.467204 -145.146 -80.1203 149.187
lowerback -5.95948 -0.104524 -6.06928
upperback 1.96577 0.360897 -0.456593
thorax 5.37147 -0.0239176 2.96957
lowerneck -18.0267 -0.188542 -5.65061
upperneck 41.4243 -1.25022 2.45155
head 18.8202 -1.70534 1.71667
rclavicle 9.96408e-015 -9.93923e-016
rhumerus -27.0462 -7.17525 -83.3006
rradius 25.8067
rwrist -6.50183
rhand -8.09528 -29.4268
rfingers 7.12502
rthumb 17.8172 -58.6306
lclavicle 9.96408e-015 -9.93923e-016
lhumerus -24.6866 3.2097 89.1173
lradius 21.7801
lwrist 4.33391
lhand -20.186 -12.2906
lfingers 7.12502
lthumb 6.16029 17.5998
rfemur 2.45436 3.4911 7.06152
rtibia 4.77083e-015
rfoot -6.74189 -21.9978
rtoes -1.66377
lfemur -3.31963 -3.53013 -22.3802
ltibia 17.2309
lfoot -21.856 23.921
ltoes 10.423
236
root 5.42744 17.0452 -0.472156 -146.237 -80.1449 150.194
lowerback -5.77742 -0.116022 -5.90399
upperback 1.89055 0.314888 -0.40214
thorax 5.19236 -0.0347582 2.92797
lowerneck -17.8986 -0.357247 -5.777
upperneck 41.4038 -1.47151 2.40599
head 18.7897 -1.82383 1.66991
rclavicle -9.51682e-015 2.48481e-014
rhumerus -27.2756 -7.52011 -83.124
rradius 25.7561
rwrist -6.0827
rhand -8.43995 -30.9127
rfingers 7.12502
rthumb 17.4855 -60.1463
lclavicle -9.51682e-015 2.48481e-014
lhumerus -24.9105 3.3823 89.0658
lradius 21.8304
lwrist 4.18913
lhand -19.8492 -12.2351
lfingers 7.12502
lthumb 6.48542 17.6456
rfemur 2.57815 3.58862 7.2732
rtibia 6.36111e-015
rfoot -6.81317 -22.0529
rtoes -1.86071
lfemur -3.11364 -3.56036 -22.2018
ltibia 17.1183
lfoot -21.8117 23.9921
ltoes 10.3479
237
root 5.42276 17.0402 -0.477582 -146.138 -80.0714 150.136
lowerback -5.8398 -0.161163 -5.98397
upperback 1.87983 0.263996 -0.377904
thorax 5.22159 -0.0634927 2.99335
lowerneck -17.9932 -0.575051 -5.99633
upperneck 41.3502 -1.71639 2.40516
head 18.805 -1.95237 1.65789
rclavicle -2.72832e-014 -1.70955e-014
rhumerus -27.4776 -7.67043 -82.9826
rradius 25.9496
rwrist -5.82102
rhand -8.28625 -31.1747
rfingers 7.12502
rthumb 17.6334 -60.3951
lclavicle -2.72832e-014 -1.70955e-014
lhumerus -24.9524 3.60196 89.0674
lradius 21.8647
lwrist 3.97753
lhand -19.6234 -11.8678
lfingers 7.12502
lthumb 6.70336 18.0061
rfemur 2.52551 3.63358 7.22848
rtibia -1.11319e-014
rfoot -6.87573 -22.009
rtoes -1.46426
lfemur -3.05558 -3.315 -22.2286
ltibia 17.0082
lfoot -21.7859 23.7701
ltoes 10.3618
238
root 5.42501 17.036 -0.485823 -146.373 -80.0226 150.498
lowerback -5.85141 -0.197826 -6.05384
upperback 1.78409 0.216249 -0.33014
thorax 5.13213 -0.0851631 3.07769
lowerneck -17.9383 -0.751394 -6.07363
upperneck 41.2733 -1.91612 2.28488
head 18.7578 -2.05917 1.57145
rclavicle -4.02539e-015 -1.03368e-014
rhumerus -27.7441 -7.70966 -82.9008
rradius 26.0507
rwrist -5.82213
rhand -8.99213 -30.4409
rfingers 7.12502
rthumb 16.954 -59.721
lclavicle -4.02539e-015 -1.03368e-014
lhumerus -25.1261 3.73403 89.0658
lradius 22.0207
lwrist 3.8586
lhand -19.622 -11.4338
lfingers 7.12502
lthumb 6.70472 18.44
rfemur 2.35744 3.67903 7.27814
rtibia 1.74931e-014
rfoot -6.86826 -21.9507
rtoes -1.16374
lfemur -3.14406 -3.04436 -22.1503
ltibia 16.9533
lfoot -21.7975 23.5297
ltoes 10.508
239
root 5.42124 17.035 -0.493117 -147.174 -80.0191 151.364
lowerback -5.83192 -0.211049 -5.94229
upperback 1.68114 0.184351 -0.305061
thorax 5.01547 -0.09184 3.03796
lowerneck -17.6345 -0.896775 -6.18218
upperneck 41.0488 -2.14877 2.35578
head 18.5569 -2.15393 1.57625
rclavicle -2.80783e-015 -5.76476e-015
rhumerus -27.9966 -7.85015 -82.846
rradius 26.0175
rwrist -5.73386
rhand -9.57793 -29.7474
rfingers 7.12502
rthumb 16.3901 -59.0749
lclavicle -2.80783e-015 -5.76476e-015
lhumerus -25.3117 3.6131 89.0367
lradius 22.0419
lwrist 3.95957
lhand -19.8182 -11.5327
lfingers 7.12502
lthumb 6.51532 18.3471
rfemur 1.60814 3.73469 7.46604
rtibia 1.31493
rfoot -7.49538 -21.8122
rtoes -1.44339
lfemur -3.13924 -2.90228 -21.9845
ltibia 16.8809
lfoot -21.769 23.4631
ltoes 10.5245
